<?xml version="1.0" encoding="utf-8"?>
<!-- Svg Vector Icons : http://www.onlinewebfonts.com/icon -->
<!DOCTYPE svg PUBLIC "-//W3C//DTD SVG 1.1//EN" "http://www.w3.org/Graphics/SVG/1.1/DTD/svg11.dtd">
<svg version="1.1" xmlns="http://www.w3.org/2000/svg" xmlns:xlink="http://www.w3.org/1999/xlink" x="0px" y="0px" viewBox="0 0 1000 1000" enable-background="new 0 0 1000 1000" xml:space="preserve">
<metadata> Svg Vector Icons : http://www.onlinewebfonts.com/icon </metadata>
<g><path fill="#FFFFFF" d="M490.2,168L147.4,319.1c-6.8-5.8-15.4-9.4-25-9.4c-20.9,0-37.8,16.6-38.5,37.4l-59.5,26.2c-19.2,8.5-19.2,35.7,0,44.2l59.3,26.1v156.7H62.8L43.5,805.6c-1.4,14.4,10,26.9,24.5,26.9h67.5c14.5,0,25.8-12.5,24.5-26.9l-19.3-205.2h-20.5V459.8l92.2,40.6c0,53.3,0,162.5,0,204.3c0,71.4,287.6,129.3,287.6,129.3s287.6-57.9,287.6-129.3c0-41.9,0-151.1,0-204.4l187.9-82.8c19.2-8.5,19.2-35.7,0-44.2L509.7,168C503.5,165.3,496.4,165.3,490.2,168z M500,412c153,0,233.2,55.7,233.2,74.9v209.3c-24.2,23.3-127.9,60-233.2,82.3c-103.6-21.9-209.1-59.2-233.2-82.3V486.9C266.8,467.7,347,412,500,412z"/></g>
</svg>